<svg style="display: none;" xmlns="http://www.w3.org/2000/svg" xmlns:xlink="http://www.w3.org/1999/xlink">
	<symbol id="nc-icon-banana" viewBox="0 0 48 48">
		<title>banana</title>
		<g >
			<path fill="#D8BC48" d="M33.2666,32.98682c-0.0166,0-0.03223-0.00049-0.04883-0.00098l-20.2666-0.98682&#10;&#9;c-0.44727-0.02197-0.82617-0.33887-0.92578-0.77588L8.68164,16.62354c-0.09277-0.40576,0.0752-0.82715,0.42285-1.05713&#10;&#9;c0.3457-0.22998,0.80078-0.22119,1.1377,0.02393c2.38574,1.72705,5.53613,2.89453,9.91699,3.67432&#10;&#9;c12.28027,2.18701,18.54004-1.04248,20.59668-2.10449l0.21582-0.11133c1.00488-0.51221,2.18457-0.31201,3.15918,0.53955&#10;&#9;c1.45801,1.27539,2.41797,4.0376,1.42871,6.84961c-1.1123,3.16064-5.47363,6.25684-11.9668,8.49414&#10;&#9;C33.4873,32.96826,33.37695,32.98682,33.2666,32.98682z"/>
			<path fill="#EFD358" d="M27.59766,44.38574c-0.50391,0-1.01367-0.00684-1.52832-0.021&#10;&#9;c-10.34473-0.2793-22.02148-5.74463-24.32129-15.64844C0.02441,21.29834,1.89844,13.58838,2.2168,12.375L1.97266,5.2749&#10;&#9;c-0.01855-0.51758,0.36133-0.96289,0.875-1.02686l5-0.625c0.27148-0.0376,0.54688,0.04492,0.75879,0.21924&#10;&#9;s0.34277,0.42822,0.3623,0.70166c0.8584,12.00537,1.78613,18.00488,13.4082,23.15723&#10;&#9;c11.40332,5.05615,18.25391,3.41162,20.50391,2.87207l0.23633-0.05664c1.10352-0.25635,2.19727,0.21924,2.93848,1.27783&#10;&#9;c1.1123,1.58643,1.38477,4.49756-0.24707,6.99316C43.55176,42.23975,36.49023,44.38574,27.59766,44.38574z"/>
		</g>
	</symbol>
	<symbol id="nc-icon-beer-95" viewBox="0 0 48 48">
		<title>beer 95</title>
		<g >
			<path fill="#D1B43D" d="M37.5,36h-8c-0.82812,0-1.5-0.67139-1.5-1.5v-14c0-0.82861,0.67188-1.5,1.5-1.5h12&#10;&#9;c0.82812,0,1.5,0.67139,1.5,1.5v10C43,33.53271,40.53223,36,37.5,36z M31,33h6.5c1.37891,0,2.5-1.12158,2.5-2.5V22h-9V33z"/>
			<path fill="#EFD358" d="M6,18v25c0,2.20911,1.79083,4,4,4h22c2.20917,0,4-1.79089,4-4V18H6z"/>
			<path fill="#D1B43D" d="M21,39c-0.55225,0-1-0.44727-1-1V25c0-0.55273,0.44775-1,1-1s1,0.44727,1,1v13&#10;&#9;C22,38.55273,21.55225,39,21,39z"/>
			<path fill="#D1B43D" d="M14,39c-0.55225,0-1-0.44727-1-1V25c0-0.55273,0.44775-1,1-1s1,0.44727,1,1v13&#10;&#9;C15,38.55273,14.55225,39,14,39z"/>
			<path fill="#D1B43D" d="M28,39c-0.55225,0-1-0.44727-1-1V25c0-0.55273,0.44775-1,1-1s1,0.44727,1,1v13&#10;&#9;C29,38.55273,28.55225,39,28,39z"/>
			<path fill="#E6E6E6" d="M33,10h-0.39331C31.27264,4.82715,26.58954,1,21,1S10.72736,4.82715,9.39331,10H9c-2.76141,0-5,2.23859-5,5&#10;&#9;s2.23859,5,5,5h24c2.76141,0,5-2.23859,5-5S35.76141,10,33,10z"/>
			<path fill="#E6E6E6" d="M12,20v9c0,1.10457,0.89543,2,2,2h0c1.10457,0,2-0.89543,2-2v-9H12z"/>
		</g>
	</symbol>
	<symbol id="nc-icon-coffe-long" viewBox="0 0 48 48">
		<title>coffe long</title>
		<g >
			<path fill="#E6E6E6" d="M36,47H12c-0.51074,0-0.93945-0.38477-0.99414-0.89258l-4-37c-0.03076-0.28223,0.06055-0.56445,0.25-0.77539&#10;&#9;S7.71631,8,8,8h32c0.28369,0,0.55469,0.12109,0.74414,0.33203s0.28076,0.49316,0.25,0.77539l-4,37&#10;&#9;C36.93945,46.61523,36.51074,47,36,47z"/>
			<path fill="#B3B3B3" d="M42,6h-5H11H6C5.44769,6,5,6.44769,5,7v1c0,0.55225,0.44769,1,1,1h36c0.55231,0,1-0.44775,1-1V7&#10;&#9;C43,6.44769,42.55231,6,42,6z"/>
			<path fill="#E6E6E6" d="M35.25146,1.6286C35.09961,1.24896,34.73187,1,34.32294,1H13.67706&#10;&#9;c-0.40894,0-0.77667,0.24896-0.92853,0.6286L11,6h26L35.25146,1.6286z"/>
			<path fill="#4DA34D" d="M24,35c-4.41072,0-8-3.58928-8-8s3.58928-8,8-8s8,3.58928,8,8S28.41072,35,24,35z"/>
		</g>
	</symbol>
	<symbol id="nc-icon-pizza-slice" viewBox="0 0 48 48">
		<title>pizza slice</title>
		<g >
			<path fill="#EA9860" d="M44.36426,38.86914L24.88672,1.53711c-0.34473-0.66016-1.42871-0.66016-1.77344,0L16.6004,14.0202&#10;&#9;C16.73309,14.01141,16.86511,14,17,14c3.31372,0,6,2.68628,6,6s-2.68628,6-6,6c-2.18024,0-4.08313-1.16681-5.13373-2.90613&#10;&#9;L3.63574,38.86914c-0.12354,0.2373-0.14697,0.5127-0.06592,0.76758c0.08154,0.25391,0.26123,0.46484,0.49902,0.58691&#10;&#9;C10.29346,43.39258,16.99902,45,24,45s13.70654-1.60742,19.93115-4.77637c0.23779-0.12207,0.41748-0.33301,0.49902-0.58691&#10;&#9;C44.51123,39.38184,44.48779,39.10645,44.36426,38.86914z"/>
			<path fill="#C94F49" d="M17,26c3.31372,0,6-2.68628,6-6s-2.68628-6-6-6c-0.13489,0-0.26691,0.01141-0.3996,0.0202l-4.73413,9.07367&#10;&#9;C12.91687,24.83319,14.81976,26,17,26z"/>
			<circle fill="#C94F49" cx="27" cy="30" r="4"/>
			<path fill="#DDBE99" d="M24,47c-7.31934,0-14.33057-1.68066-20.83887-4.99414c-1.47656-0.75195-2.06396-2.55859-1.31201-4.03516&#10;&#9;c0.75146-1.47656,2.55811-2.0625,4.03467-1.3125C11.54102,39.53906,17.63574,41,24,41s12.45898-1.46094,18.11621-4.3418&#10;&#9;c1.47803-0.74902,3.28369-0.16309,4.03467,1.3125c0.75195,1.47656,0.16455,3.2832-1.31201,4.03516&#10;&#9;C38.33057,45.31934,31.31934,47,24,47z"/>
		</g>
	</symbol>
	<symbol id="nc-icon-sushi" viewBox="0 0 48 48">
		<title>sushi</title>
		<g >
			<path fill="#A67C52" d="M9.99951,45.00049c-0.12354,0-0.24902-0.02344-0.37109-0.07178&#10;&#9;c-0.5127-0.20557-0.76221-0.78711-0.55713-1.30029l16-40c0.20508-0.5127,0.78564-0.76221,1.30029-0.55713&#10;&#9;c0.5127,0.20557,0.76221,0.78711,0.55713,1.30029l-16,40C10.77197,44.76221,10.39648,45.00049,9.99951,45.00049z"/>
			<path fill="#C19F85" d="M4.00049,39.00049c-0.39697,0-0.77246-0.23828-0.9292-0.62891&#10;&#9;c-0.20508-0.51318,0.04443-1.09473,0.55713-1.30029l40-16c0.51562-0.20361,1.09521,0.04492,1.30029,0.55713&#10;&#9;c0.20508,0.51318-0.04443,1.09473-0.55713,1.30029l-40,16C4.24951,38.97705,4.12402,39.00049,4.00049,39.00049z"/>
			<circle fill="#FFFFFF" cx="32" cy="16" r="10"/>
			<path fill="#444444" d="M32,27.5c-6.34131,0-11.5-5.15869-11.5-11.5S25.65869,4.5,32,4.5S43.5,9.65869,43.5,16&#10;&#9;S38.34131,27.5,32,27.5z M32,7.5c-4.68701,0-8.5,3.81299-8.5,8.5s3.81299,8.5,8.5,8.5s8.5-3.81299,8.5-8.5S36.68701,7.5,32,7.5z"/>
			<circle fill="#E86C60" cx="32" cy="16" r="4"/>
		</g>
	</symbol>
</svg>